<?xml version="1.0" encoding="utf-8"?>
<!-- Generator: Adobe Illustrator 17.0.0, SVG Export Plug-In . SVG Version: 6.00 Build 0)  -->
<!DOCTYPE svg PUBLIC "-//W3C//DTD SVG 1.1//EN" "http://www.w3.org/Graphics/SVG/1.1/DTD/svg11.dtd">
<svg version="1.1" id="Layer_1" xmlns="http://www.w3.org/2000/svg" xmlns:xlink="http://www.w3.org/1999/xlink" x="0px" y="0px"
	 width="360px" height="330px" viewBox="0 0 360 330" style="enable-background:new 0 0 360 330;" xml:space="preserve">
<g>
	<circle style="fill:none;stroke:#1D6B9A;stroke-width:7.65;stroke-miterlimit:10;" cx="179.7" cy="164.8" r="143"/>
	<g>
		<circle style="fill:#1D6B9A;" cx="158.7" cy="123.5" r="20"/>
		<circle style="fill:#1D6B9A;" cx="202.8" cy="142.7" r="12"/>
		<circle style="fill:#1D6B9A;" cx="180.7" cy="177" r="26.1"/>
		<circle style="fill:#1D6B9A;" cx="115" cy="161" r="18.4"/>
		<circle style="fill:#1D6B9A;" cx="148.3" cy="156.2" r="10.6"/>
		<circle style="fill:#1D6B9A;" cx="128" cy="125.9" r="7.5"/>
		<circle style="fill:#1D6B9A;" cx="124.9" cy="86.7" r="25.5"/>
		<circle style="fill:#1D6B9A;" cx="170.9" cy="85.7" r="15.7"/>
		<circle style="fill:#1D6B9A;" cx="225" cy="90.4" r="33"/>
		<circle style="fill:#1D6B9A;" cx="184.6" cy="107.6" r="7.6"/>
		<circle style="fill:#1D6B9A;" cx="186.1" cy="129.6" r="6.1"/>
		<circle style="fill:#1D6B9A;" cx="197.6" cy="120.6" r="5.3"/>
		<circle style="fill:#1D6B9A;" cx="243.3" cy="152" r="26.9"/>
		<circle style="fill:#1D6B9A;" cx="210.3" cy="161.8" r="5.1"/>
		<circle style="fill:#1D6B9A;" cx="227.7" cy="202.9" r="23"/>
		<circle style="fill:#1D6B9A;" cx="132.3" cy="216.9" r="11.7"/>
		<circle style="fill:#1D6B9A;" cx="172.1" cy="229.9" r="23.7"/>
		<circle style="fill:#1D6B9A;" cx="139.5" cy="188" r="14.9"/>
		<circle style="fill:#1D6B9A;" cx="88.7" cy="123.5" r="22.4"/>
		<circle style="fill:#1D6B9A;" cx="76.2" cy="164.1" r="15.8"/>
		<circle style="fill:#1D6B9A;" cx="63.4" cy="143.1" r="5.3"/>
		<circle style="fill:#1D6B9A;" cx="155.8" cy="58.4" r="12.1"/>
		<circle style="fill:#1D6B9A;" cx="136" cy="56.2" r="5.3"/>
		<circle style="fill:#1D6B9A;" cx="89.4" cy="90.1" r="7.6"/>
		<circle style="fill:#1D6B9A;" cx="89.5" cy="206.5" r="25.5"/>
		<circle style="fill:#1D6B9A;" cx="117.4" cy="187.9" r="5.1"/>
		<circle style="fill:#1D6B9A;" cx="115.2" cy="243.6" r="15.5"/>
		<circle style="fill:#1D6B9A;" cx="89.6" cy="242.2" r="7.7"/>
		<circle style="fill:#1D6B9A;" cx="61.6" cy="185" r="8"/>
		<circle style="fill:#1D6B9A;" cx="142.9" cy="265.5" r="16"/>
		<circle style="fill:#1D6B9A;" cx="140.5" cy="239.4" r="7.3"/>
		<circle style="fill:#1D6B9A;" cx="118.9" cy="267.9" r="5.7"/>
		<circle style="fill:#1D6B9A;" cx="210.6" cy="239.8" r="13.8"/>
		<circle style="fill:#1D6B9A;" cx="198.1" cy="211" r="5.9"/>
		<circle style="fill:#1D6B9A;" cx="170" cy="278.1" r="11.2"/>
		<circle style="fill:#1D6B9A;" cx="167" cy="259.8" r="6"/>
		<circle style="fill:#1D6B9A;" cx="200.7" cy="269.9" r="16.1"/>
		<circle style="fill:#1D6B9A;" cx="186.4" cy="285.4" r="3.9"/>
		<circle style="fill:#1D6B9A;" cx="181.6" cy="258.8" r="4.6"/>
		<circle style="fill:#1D6B9A;" cx="187" cy="55.4" r="17"/>
		<circle style="fill:#1D6B9A;" cx="211.8" cy="51.4" r="5"/>
		<circle style="fill:#1D6B9A;" cx="269.9" cy="97.3" r="10.3"/>
		<circle style="fill:#1D6B9A;" cx="263.1" cy="79.6" r="5.1"/>
		<circle style="fill:#1D6B9A;" cx="272.6" cy="122.1" r="12"/>
		<circle style="fill:#1D6B9A;" cx="253.5" cy="120.2" r="4.9"/>
		<circle style="fill:#1D6B9A;" cx="289" cy="156.7" r="16.4"/>
		<circle style="fill:#1D6B9A;" cx="292.4" cy="130" r="7.9"/>
		<circle style="fill:#1D6B9A;" cx="284.6" cy="107.9" r="4.4"/>
		<circle style="fill:#1D6B9A;" cx="271.7" cy="180.3" r="10"/>
		<circle style="fill:#1D6B9A;" cx="258.9" cy="244.2" r="10"/>
		<circle style="fill:#1D6B9A;" cx="270.3" cy="214" r="20.2"/>
		<circle style="fill:#1D6B9A;" cx="255" cy="187.4" r="6.4"/>
		<circle style="fill:#1D6B9A;" cx="290.9" cy="183.2" r="8.4"/>
		<circle style="fill:#1D6B9A;" cx="293.5" cy="200.7" r="4.5"/>
		<circle style="fill:#1D6B9A;" cx="244" cy="232.7" r="6.8"/>
		<circle style="fill:#1D6B9A;" cx="229.7" cy="234.7" r="4.7"/>
		<circle style="fill:#1D6B9A;" cx="238.3" cy="250.9" r="10.6"/>
		<circle style="fill:#1D6B9A;" cx="227.1" cy="270.4" r="9.1"/>
		<circle style="fill:#1D6B9A;" cx="222" cy="256.6" r="4.5"/>
		<circle style="fill:#1D6B9A;" cx="242.7" cy="268.1" r="4.4"/>
		<circle style="fill:#1D6B9A;" cx="253.2" cy="259" r="2.5"/>
		<circle style="fill:#1D6B9A;" cx="274.3" cy="238.9" r="1.7"/>
	</g>
</g>
</svg>
